<svg version="1" xmlns="http://www.w3.org/2000/svg" width="285.333" height="285.333" viewBox="0 0 214.000000 214.000000"><path d="M142.5 11.3c-8.9 10.1-16.1 21.1-23 35-8.9 17.9-10.8 29.2-6.5 37.6 2.3 4.5 4.7 6.2 12 8.4 9.7 3 13.4 1.5 31.7-13.2 7.8-6.2 10-8.9 7.1-8.8-.7 0-3-.1-5.1-.1L155 70l2.1-4.2c1.2-2.3 4.1-8.9 6.5-14.6l4.4-10.4-2.8.7c-1.5.3-5.2 1.9-8.3 3.5l-5.6 2.8-.2-16.6c-.3-22.3-.5-25.5-1.8-25.9-.6-.2-3.6 2.5-6.8 6z"/><path d="M72.5 57.1c-7.2.7-16.1 3.2-19 5.3-1.5 1.1-1.6 1.7-.4 5.9l1.4 4.6 4.1-1.9c5.7-2.7 11-3.7 17.5-3.5 9.1.3 15.1 5.3 16.2 13.6.6 4.5-.1 5.5-3.3 5.5-13 .1-26.2 3.7-33.8 9.4-9.8 7.3-12 23.5-4.5 33.3 8.3 10.7 29.3 11 39.3.5 1.5-1.5 2.9-2.8 3.2-2.8.3 0 .4 3.7.3 8.2-.4 13.1 3.1 23.7 10.1 31.2 3.2 3.4 11.1 8.2 12.7 7.8.4-.1.7.1.7.6 0 .4 1 .7 2.3.8 1.2.1 3.6.2 5.2.4 9.6.9 21.5-4.5 25.3-11.5.9-1.6 1.1-.5 1.2 5.6 0 19.7-8.7 29.1-26.6 28.4-7.1-.3-10.8-1.2-19.6-4.9-1.3-.6-1.9.3-3.1 4.5-1.5 4.9-1.5 5.4.1 6.5 7 5.1 31 6.6 41.3 2.5 6.9-2.6 13.6-8.4 16.7-14.2 4.3-8.1 5.1-15.1 5.2-48.9 0-17.3.2-34.5.4-38.2.3-7.5.2-7.6-8.1-6.9l-4.3.3v11.3l-3-3.7c-3.3-3.9-8.5-7.6-12.2-8.4-9.1-2.2-20.4-.5-27.4 4-1.3.9-2.7 1.7-3.1 1.9-.4.1-.8-5.2-.9-11.8-.1-13.1-1.2-18.7-5-24.6-4.9-7.9-16.1-12-28.9-10.8zM93 104.4c0 14.2-5.9 21.5-18.1 22.4-5 .4-6.5.1-9.4-1.9-6-4.2-6.9-14.8-1.7-21.1C67 100 78 96.6 87.6 96.4H93v8zm46.5 5.9c3.8 1.9 7.7 6.2 9.8 10.6 2.5 5 2 28.2-.7 33.1-6.3 11.6-20.5 14.8-31.1 7-12.1-8.8-13.2-34.5-2.1-46.3 5.7-6.1 17-8.2 24.1-4.4z"/></svg>